<?xml version="1.0" encoding="iso-8859-1"?>
<!-- Generator: Adobe Illustrator 19.0.0, SVG Export Plug-In . SVG Version: 6.00 Build 0)  -->
<svg version="1.1" id="Layer_1" xmlns="http://www.w3.org/2000/svg" xmlns:xlink="http://www.w3.org/1999/xlink" x="0px" y="0px"
	 viewBox="0 0 512 512" style="enable-background:new 0 0 512 512;" xml:space="preserve">
<circle style="fill:#FF7452;" cx="291.721" cy="53.581" r="45.463"/>
<path style="fill:#E24642;" d="M307.958,82.808c-25.109,0-45.463-20.354-45.463-45.463c0-8.388,2.281-16.239,6.242-22.984
	c-13.446,7.896-22.479,22.5-22.479,39.22c0,25.109,20.354,45.463,45.463,45.463c16.721,0,31.324-9.033,39.221-22.479
	C324.197,80.527,316.346,82.808,307.958,82.808z"/>
<circle style="fill:#5AC779;" cx="231.104" cy="458.419" r="45.463"/>
<path style="fill:#00A085;" d="M248.423,486.562c-25.109,0-45.463-20.354-45.463-45.463c0-8.104,2.13-15.707,5.847-22.296
	c-13.825,7.798-23.167,22.611-23.167,39.616c0,25.109,20.354,45.463,45.463,45.463c17.004,0,31.818-9.342,39.616-23.167
	C264.13,484.432,256.527,486.562,248.423,486.562z"/>
<circle style="fill:#FFD652;" cx="386.977" cy="250.588" r="45.463"/>
<path style="fill:#FB9D46;" d="M404.296,278.732c-25.109,0-45.463-20.354-45.463-45.463c0-8.104,2.13-15.707,5.847-22.296
	c-13.825,7.798-23.167,22.611-23.167,39.616c0,25.109,20.354,45.463,45.463,45.463c17.004,0,31.818-9.342,39.616-23.167
	C420.003,276.601,412.4,278.732,404.296,278.732z"/>
<path style="fill:#458FDE;" d="M387.622,409.577l-13.777,13.777c-6.341,6.341-16.621,6.341-22.962,0l-67.356-67.356
	c-6.341-6.341-6.341-16.621,0-22.962l13.777-13.777c6.341-6.341,16.621-6.341,22.962,0l67.356,67.356
	C393.963,392.955,393.963,403.236,387.622,409.577z"/>
<path style="fill:#4F5AA8;" d="M363.833,411.397l-67.356-67.356c-6.341-6.341-6.341-16.621,0-22.962l4.66-4.66
	c-1.377,0.736-2.671,1.679-3.833,2.84l-13.777,13.777c-6.341,6.341-6.341,16.621,0,22.962l67.356,67.356
	c6.341,6.341,16.621,6.341,22.962,0l9.117-9.117C376.819,417.52,369.012,416.576,363.833,411.397z"/>
<circle style="fill:#666666;" cx="161.827" cy="197.558" r="108.245"/>
<path style="fill:#4C4C4C;" d="M106.399,252.986c-38.69-38.69-41.961-99.378-9.829-141.797c-3.927,2.976-7.703,6.247-11.285,9.829
	c-42.272,42.272-42.272,110.81,0,153.082s110.81,42.272,153.081,0c3.582-3.582,6.853-7.357,9.829-11.285
	C205.777,294.948,145.089,291.677,106.399,252.986z"/>
<circle style="fill:#CCCCCC;" cx="161.827" cy="197.558" r="69.277"/>
<g>
	<path style="fill:#FFFFFF;" d="M217.321,156.125l-96.926,96.926c3.308,2.46,6.78,4.597,10.381,6.397l92.943-92.943
		C221.918,162.906,219.781,159.433,217.321,156.125z"/>
	<path style="fill:#FFFFFF;" d="M227.537,175.677l-87.592,87.592c8.712,2.888,17.878,4.023,26.945,3.363l64.009-64.009
		C231.56,193.555,230.425,184.389,227.537,175.677z"/>
</g>
<path d="M90.385,61.7h38.968c4.484,0,8.118-3.635,8.118-8.118s-3.635-8.118-8.118-8.118H90.385c-4.484,0-8.118,3.635-8.118,8.118
	S85.901,61.7,90.385,61.7z"/>
<path d="M166.156,61.7h72.597c3.924,25.706,26.181,45.463,52.967,45.463s49.043-19.757,52.967-45.463h113.732
	c4.483,0,8.118-3.635,8.118-8.118s-3.635-8.118-8.118-8.118H344.688C340.764,19.757,318.506,0,291.721,0
	s-49.043,19.757-52.967,45.463h-72.598c-4.484,0-8.118,3.635-8.118,8.118S161.673,61.7,166.156,61.7z M291.721,16.237
	c20.592,0,37.345,16.753,37.345,37.345s-16.753,37.345-37.345,37.345c-20.591,0-37.345-16.753-37.345-37.345
	S271.129,16.237,291.721,16.237z"/>
<path d="M458.419,248.964h-17.902c-0.864-28.795-24.54-51.958-53.54-51.958s-52.676,23.162-53.54,51.958h-67.178
	c5.225-10.609,8.823-22.019,10.625-33.971c0.669-4.434-2.384-8.57-6.817-9.238c-4.432-0.67-8.57,2.384-9.238,6.817
	c-3.204,21.25-12.957,40.54-28.202,55.786c-18.912,18.911-44.056,29.327-70.8,29.327s-51.888-10.415-70.8-29.327
	C72.115,249.448,61.7,224.304,61.7,197.558s10.415-51.89,29.327-70.801s44.056-29.326,70.8-29.326s51.888,10.415,70.8,29.326
	c14.726,14.726,24.364,33.316,27.875,53.761c0.759,4.42,4.96,7.389,9.375,6.628c4.42-0.759,7.387-4.957,6.628-9.375
	c-4.082-23.772-15.284-45.383-32.397-62.494c-45.37-45.37-119.192-45.37-164.562,0c-21.979,21.978-34.083,51.2-34.083,82.282
	s12.104,60.303,34.082,82.282c21.978,21.978,51.199,34.082,82.282,34.082c28.36,0,55.168-10.082,76.341-28.542l40.766,40.767
	l-1.148,1.148c-9.496,9.496-9.496,24.947,0,34.444l67.356,67.356c4.749,4.749,10.984,7.123,17.222,7.123
	c6.236,0,12.474-2.375,17.222-7.123l13.777-13.777c9.496-9.496,9.496-24.947,0-34.444l-67.357-67.357
	c-9.496-9.497-24.948-9.495-34.444,0l-1.148,1.148l-40.775-40.775c2.443-2.801,4.745-5.698,6.892-8.69h78.905
	c6.379,22.462,27.06,38.968,51.539,38.968c24.479,0,45.161-16.506,51.539-38.968h19.905c4.483,0,8.118-3.635,8.118-8.118
	C466.537,252.599,462.902,248.964,458.419,248.964z M308.786,322.625c2.078,0,4.158,0.791,5.74,2.374l67.357,67.357
	c3.165,3.165,3.165,8.316,0,11.482l-13.777,13.777c-3.165,3.165-8.315,3.165-11.482,0l-67.356-67.356
	c-3.165-3.165-3.165-8.316,0-11.482L303.046,325C304.627,323.416,306.706,322.625,308.786,322.625z M386.977,287.932
	c-20.592,0-37.345-16.753-37.345-37.345s16.753-37.345,37.345-37.345c20.591,0,37.345,16.753,37.345,37.345
	S407.568,287.932,386.977,287.932z"/>
<path d="M380.482,452.465h-96.136c-2.972-26.752-25.71-47.628-53.243-47.628s-50.27,20.876-53.243,47.628H90.385
	c-4.484,0-8.118,3.635-8.118,8.118s3.635,8.118,8.118,8.118h88.138c4.81,24.641,26.554,43.298,52.581,43.298
	s47.771-18.657,52.581-43.298h96.797c4.484,0,8.118-3.635,8.118-8.118S384.966,452.465,380.482,452.465z M231.104,495.763
	c-20.591,0-37.345-16.753-37.345-37.345c0-20.592,16.753-37.345,37.345-37.345s37.345,16.753,37.345,37.345
	C268.448,479.01,251.695,495.763,231.104,495.763z"/>
<path d="M458.419,452.465h-43.298c-4.484,0-8.118,3.635-8.118,8.118s3.635,8.118,8.118,8.118h43.298
	c4.483,0,8.118-3.635,8.118-8.118S462.902,452.465,458.419,452.465z"/>
<path d="M118.58,240.805c-7.99-7.991-13.599-17.988-16.219-28.912c-1.046-4.36-5.426-7.047-9.788-6c-4.36,1.046-7.047,5.428-6,9.788
	c3.32,13.839,10.419,26.497,20.528,36.606c15.088,15.088,34.908,22.632,54.727,22.632s39.638-7.544,54.727-22.632
	c14.617-14.619,22.668-34.055,22.668-54.728s-8.05-40.109-22.669-54.727c-30.177-30.177-79.277-30.177-109.453,0
	c-9.484,9.484-16.366,21.298-19.9,34.164c-1.187,4.323,1.355,8.792,5.679,9.979c4.324,1.184,8.791-1.355,9.979-5.679
	c2.789-10.156,8.226-19.485,15.723-26.983c23.845-23.845,62.646-23.845,86.491,0s23.845,62.646,0,86.491
	S142.426,264.65,118.58,240.805z"/>
<g>
</g>
<g>
</g>
<g>
</g>
<g>
</g>
<g>
</g>
<g>
</g>
<g>
</g>
<g>
</g>
<g>
</g>
<g>
</g>
<g>
</g>
<g>
</g>
<g>
</g>
<g>
</g>
<g>
</g>
</svg>
