<?xml version="1.0" encoding="iso-8859-1"?>
<!-- Generator: Adobe Illustrator 19.0.0, SVG Export Plug-In . SVG Version: 6.00 Build 0)  -->
<svg version="1.1" id="Layer_1" xmlns="http://www.w3.org/2000/svg" xmlns:xlink="http://www.w3.org/1999/xlink" x="0px" y="0px"
	 viewBox="0 0 512 512" style="enable-background:new 0 0 512 512;" xml:space="preserve">
<rect x="245.33" y="15.938" style="fill:#CCD1D9;" width="21.344" height="84.19"/>
<g>
	<path style="fill:#434A54;" d="M74.672,309.344V416c0,5.891,4.766,10.672,10.656,10.672S96,421.891,96,416V309.344H74.672z"/>
	<path style="fill:#434A54;" d="M416,309.344v106.328c0,5.891,4.781,10.672,10.672,10.672s10.656-4.781,10.656-10.672V309.344H416z"
		/>
</g>
<g>
	<path style="fill:#CCD1D9;" d="M85.328,234.672h71.109V320H85.328c-23.562,0-42.656-19.094-42.656-42.656
		C42.672,253.766,61.766,234.672,85.328,234.672z"/>
	<path style="fill:#CCD1D9;" d="M426.672,234.672h-71.109V320h71.109c23.562,0,42.656-19.094,42.656-42.656
		C469.328,253.766,450.234,234.672,426.672,234.672z"/>
</g>
<circle style="fill:#434A54;" cx="256" cy="426.67" r="85.33"/>
<path style="fill:#E6E9ED;" d="M405.328,245.344C405.328,162.859,338.469,96,256,96s-149.328,66.859-149.328,149.344V448
	c0,11.781,9.547,21.344,21.328,21.344h256c11.781,0,21.328-9.562,21.328-21.344V245.344L405.328,245.344z"/>
<path style="fill:#AAB2BD;" d="M106.672,245.344V256h298.656v-10.656l0,0c0-3.594-0.125-7.156-0.375-10.672H107.047
	C106.797,238.188,106.672,241.75,106.672,245.344z"/>
<circle style="fill:#E6E9ED;" cx="256" cy="32" r="32"/>
<path style="fill:#A0D468;" d="M320,309.344c0,5.891-4.781,10.656-10.672,10.656s-10.656-4.766-10.656-10.656
	s4.766-10.672,10.656-10.672S320,303.453,320,309.344z"/>
<path style="fill:#434A54;" d="M218.453,181.344c0,5.891-4.781,10.656-10.672,10.656s-10.672-4.766-10.672-10.656
	s4.781-10.672,10.672-10.672S218.453,175.453,218.453,181.344z"/>
<path style="fill:#ED5565;" d="M362.672,309.344c0,5.891-4.781,10.656-10.672,10.656s-10.672-4.766-10.672-10.656
	s4.781-10.672,10.672-10.672S362.672,303.453,362.672,309.344z"/>
<g>
	<path style="fill:#434A54;" d="M303.781,181.344c0,5.891-4.781,10.656-10.672,10.656s-10.656-4.766-10.656-10.656
		s4.766-10.672,10.656-10.672S303.781,175.453,303.781,181.344z"/>
	<path style="fill:#434A54;" d="M202.672,298.672H160c-5.891,0-10.672,4.781-10.672,10.672S154.109,320,160,320h42.672
		c5.891,0,10.656-4.766,10.656-10.656S208.562,298.672,202.672,298.672z"/>
</g>
<g>
</g>
<g>
</g>
<g>
</g>
<g>
</g>
<g>
</g>
<g>
</g>
<g>
</g>
<g>
</g>
<g>
</g>
<g>
</g>
<g>
</g>
<g>
</g>
<g>
</g>
<g>
</g>
<g>
</g>
</svg>
